<?xml version="1.0" encoding="UTF-8"?>
<svg id="Layer_1" xmlns="http://www.w3.org/2000/svg" version="1.1" viewBox="0 0 1920 1080">
  <!-- Generator: Adobe Illustrator 29.6.0, SVG Export Plug-In . SVG Version: 2.1.1 Build 207)  -->
  <defs>
    <style>
      .st0 {
        fill: #f6ce12;
      }

      .st1 {
        fill: #f6cf12;
      }

      .st2 {
        fill: #fefefe;
      }

      .st3, .st4 {
        fill: #231f20;
      }

      .st5 {
        fill: #f8f7f7;
      }

      .st6 {
        fill: #262222;
      }

      .st7 {
        fill: #fff;
      }

      .st8 {
        fill: #fdfdfd;
      }

      .st9 {
        fill: #fdfdfc;
      }

      .st10 {
        fill: #020202;
      }

      .st11 {
        fill: #f9f9f8;
      }

      .st12 {
        fill: #faf9f9;
      }

      .st13 {
        fill: #272323;
      }

      .st4 {
        stroke: #231f20;
        stroke-miterlimit: 10;
        stroke-width: 2px;
      }

      .st14 {
        fill: #f6cf14;
      }

      .st15 {
        fill: #f6f5f5;
      }

      .st16 {
        fill: #f9f8f8;
      }

      .st17 {
        fill: #fffffe;
      }

      .st18 {
        fill: #f9f9f9;
      }

      .st19 {
        fill: #f6cf13;
      }

      .st20 {
        fill: #010202;
      }

      .st21 {
        fill: #252122;
      }

      .st22 {
        fill: #2c2829;
      }

      .st23 {
        fill: #252121;
      }

      .st24 {
        fill: #262122;
      }
    </style>
  </defs>
  <g>
    <rect class="st2" y="135" width="810" height="810"/>
    <path class="st0" d="M434.37,170.34c.82-.51,16.72,1.11,17.22,1.81,4.79,12.25,7.48,25.08,8.9,38.16.27,2.48-.73,7.69,1.11,9.38.69.63,16.73,4.1,18.32,4.1,1.01,0,1.46-.12,2.28-.74,2.01-1.52,8.21-14.91,10.68-18.6,2.27-3.4,5.47-7.48,8.13-10.61,1.21-1.42,7.41-8.64,8.25-9.02,2.9-1.33,12.6,3.98,16.31,4.3,3.48,15.8,2.3,31.79-.11,47.63.3,1.07.62,1.62,1.49,2.32.96.78,14.75,6.99,16.03,7.26,3.78.81,7.14-6.28,9.37-8.69,8.35-8.98,17.54-17.28,28.09-23.65.76-.15,13.02,6.94,13.54,7.56,1.87,2.26-.37,14.9-.98,18.49s-1.42,7.53-2.39,11.1c-1.22,4.45-7.42,16.71-4.86,19.85.63.77,13.9,10.56,14.8,10.75,2.64.56,10.09-6.93,12.69-8.73,3.53-2.45,7.25-4.89,10.99-7,3.25-1.83,15.53-8.25,18.44-8.53,1.01-.1,11.49,8.7,12.11,9.74.72,1.21.76,1.41.58,2.83-.91,6.84-7.51,21.72-10.99,28.06-1.96,3.56-9.2,12.21-8.25,15.44.79,2.69,10.05,9.87,11.51,13.27.37.53.9.66,1.49.78,3.52.68,13.39-5.45,17.63-7.12,9.26-3.64,19.09-6.01,28.92-7.63.78.13,9.12,11.75,9.53,12.71.37.86.23.99,0,1.79-.66,2.18-5.39,9.44-6.94,11.86-2.88,4.5-6.3,9.41-9.79,13.45-3.14,3.64-12.28,9.98-11.07,14.81.2.8,7.46,13.4,8.2,14.33s1.49,1.66,2.68,1.84c2.15.32,18.42-4.55,23.1-5.09,3.25-.38,23.5-1.53,24.44-.29l6.31,15.28c-5.83,6.87-11.78,13.74-18.78,19.46-2.9,2.37-17.49,11.3-17.46,13.74,1.64,2.6,4.87,17.67,6.41,18.51,3.39,1.86,7.75,0,11.04-.04,12.65-.17,25.46,1.47,37.54,5.27.45,2.96,4.17,14.63,3.01,16.48-9.17,7.12-18.59,13.23-29.14,18.12-2.93,1.36-13.04,3.8-13.2,6.93l2.66,19.24c4.85,1.98,10.29,1.95,15.42,3.16,10.7,2.52,20.55,6.57,30.49,11.12l.17,17.41c-11.24,5.5-22.87,9.63-35.14,12.23-2.75.58-10.14.35-11.24,3.01-.66,1.61-2.26,15.86-2.18,17.98.04,1.04.22,1.63.92,2.43,1.31,1.49,12.76,5.16,15.86,6.65,5.36,2.58,20.98,11.81,24.63,15.85.59.65,1.01.85,1.11,1.9.09.95-2.8,14.99-3.46,15.43-10.72,2.73-22.6,5.23-33.71,5.2-3.72,0-11.71-2.12-14.85-.1-1.35.87-5.26,16.32-6.38,19.02,2.43,3.74,6.87,5.17,10.3,7.73,9.57,7.15,17.93,14.76,25.51,24.03.44.58.62,1.07.47,1.8s-5.29,12.42-5.71,12.99c-2.73,3.7-18.83.73-23.55,1.17-6.1.66-20.02-5.87-24.73-5.25-1.21.16-1.57.7-2.26,1.55-.88,1.08-8.35,13.92-8.52,14.76-1,4.74,3.73,6.43,6.27,9.17,8.65,9.34,16.74,20.53,21.71,32.25l-9.69,13.24c-10.56-2.02-21-4.47-30.92-8.63-3.1-1.29-13.13-7.31-15.47-6.75-.96.23-12.91,13.71-13.17,14.66-.87,3.14,5.55,10.42,7.25,13.47,2.36,4.25,13.82,29.23,12.01,32.31-4.03,1.65-9.17,10.45-13.55,9.76-3.01-.48-13.35-5.76-16.55-7.52-4.35-2.39-8.71-5.36-12.77-8.22-3.73-2.62-8.84-9.61-13.51-7.26-1.09.55-12.8,9.29-13.29,9.96-2.52,3.46,2.22,10.79,3.4,14.69,3.27,10.81,5.66,22.64,5.54,33.95-3.94,2.38-11.65,9.18-16.06,7.3-3.28-1.4-12.29-8.95-15.33-11.67-6.79-6.04-12.14-13.36-18.53-19.76-2.67-.73-14.6,6.86-18.47,7.32-2.29,2.08.72,11.54,1.01,14.69.76,8.4,1.24,25.43-1.23,33.22-.34,1.06-.47,1.62-1.51,2.23-1.24.73-14.44,4.91-15.12,4.52-7.18-8.47-14.45-16.31-20.23-25.89-2.06-3.41-5.32-13.7-9.3-13.57-1.3.04-16.46,3.34-17.31,3.77-2.87,1.46-2.34,13.39-2.89,17.35-1.48,10.68-4.47,21.32-8.65,31.23l-16.64,1.34c-5.29-9.81-10.92-19.42-14.56-30.03-1.52-4.43-1.89-14.18-6.89-14.85-2.07-.28-16.59-.3-17.92.16-2.03.69-4.51,13.24-5.54,16.19-1.3,3.75-3.12,8.09-4.81,11.68-1.33,2.82-7.54,14.73-9.27,16.21-.81.69-1.12.8-2.2.8-2.71,0-10.7-1-13.54-1.54-.6-.12-1.16-.14-1.51-.74-4.13-11.52-7.36-23.39-8.6-35.61-.32-3.15,1.21-10.88-2.04-12.2-2.08-.84-14.85-3.53-17.29-3.74-.98-.08-1.79.01-2.64.54-1.02.63-8.11,15.12-9.98,17.96-2.16,3.28-15.81,20.95-18.53,20.91-2.86-1.64-14.53-3.59-15.37-6.38-.9-8.92-2.14-17.86-1.68-26.86.22-4.29,3.28-17.86,1.92-20.59-.45-.91-17.62-8.38-18.6-8.13-6.22,5.73-10.69,12.5-17.02,18.27-2.75,2.5-15.3,12.8-18,13.55-2.47.69-14.6-6.12-15.01-8.31-1.17-6.17,2.45-22.89,4.31-29.43,1.08-3.8,5.91-14.25,5.46-17-.17-1.01-.52-1.27-1.11-1.94-.67-.76-13.59-10.15-14.46-10.33-3.19-.66-9.28,6.12-11.94,7.99-5.31,3.72-11.42,7.66-17.23,10.51-2.04,1-11.24,5.28-12.71,5.36-1.62.09-2.78-1.1-3.99-1.95-1.43-1.01-9.58-8.43-9.5-9.34.34-3.75,4.62-14.5,6.29-18.45,1.78-4.21,4.51-9.45,6.76-13.48,1.49-2.68,7.15-9.43,6.9-11.83-.2-1.97-11.17-12.32-12.97-14.85-2.82-1.4-11.02,4.22-14.3,5.59-7.57,3.15-23.06,8.65-30.93,8.89-1.34.04-1.84.12-2.94-.79-1.01-.84-8.64-12.11-8.49-12.96,4.51-7.82,8.94-15.8,14.55-22.91,2.45-3.11,12.61-12.6,13.42-14.32.69-1.48.5-2.24-.03-3.69-.41-1.14-8.3-14.46-8.97-15.02-.53-.44-.74-.68-1.51-.8-4.31-.66-18.97,5.88-24.75,5.27-6.79-.58-15.87,2.3-22.35-.13-2.12-.79-5.88-12.1-7.12-14.62,9.33-13.05,22.19-22.91,35.47-31.71.71-1.29.41-2.57.22-3.92-.24-1.67-4.33-14.35-5.08-15.74-1.5-2.79-14.87-.47-18.42-.53-9.95-.16-20.96-2.85-30.61-5.21l-3.36-16.01c11.72-11.04,26.74-18.15,41.72-23.93.74-6.82-1.32-13.53-1.44-20.35-.75-2.35-13-3.02-15.82-3.68-5.23-1.23-11.47-3.31-16.52-5.23-1.97-.75-13.33-5.42-14.09-6.16-.99-.96-1.1-13.75-.73-15.76.2-1.07.42-1.19,1.21-1.79,2.52-1.95,12.18-5.58,15.66-6.83,4.29-1.54,9.3-3.25,13.72-4.27,3.38-.79,15.02-1.2,16.3-3.95.85-1.82,2.36-18.82,1.5-20.24-.63-1.05-15.6-6.39-18.42-7.83-8-4.06-15.22-9.82-22.52-14.97-.86-.86-.72-1.85-.65-2.93.15-2.34,2.55-13.75,4.22-14.59,3.27-1.63,15.31-3.31,19.46-3.78,2.62-.3,5.54-.77,8.11-.89,7.04-.34,13.89,1.61,20.49-.13.41-4.7,6.78-16.2,5.03-20.05-.77-1.69-12.89-9.02-15.71-11.28-6.92-5.53-12.8-12.23-18.74-18.76-.73-1.11-1.17-1.51-.85-2.96.18-.83,5.58-12.92,6.06-13.49.99-1.2,12.53-.9,15.04-.77,6.28.3,13.66,1.44,19.87,2.63,3.46.66,12.8,4.81,15.01,2.11,1.13-1.39,7.43-12.36,8.13-14.14,2.31-5.82-3.01-7.12-6.3-10.78-3.69-4.09-7.54-8.77-10.73-13.26-2.38-3.35-9.52-14.08-10.35-17.47-.17-.68-.22-.77.06-1.46s8.02-11.29,8.65-11.64c3.65-2.04,25.22,4.83,29.98,6.75s12.68,7.36,16.93,7.18c2.32-.1,5.64-5.51,7.45-7.58,1.31-1.5,5.45-4.78,6.02-6.01,1.51-3.26-5.68-11.57-7.53-14.95-3.25-5.94-6.7-13.25-8.82-19.66-.66-2-3.02-9.15-2.81-10.67.26-1.89,11.29-11.56,12.82-11.29,3.37.6,12.01,5.18,15.46,7s7.95,4.42,11.29,6.7c2.89,1.98,11.94,10.31,14.21,10.5,2.79.22,12.49-9.46,15.99-10.7.52-.38.68-.91.79-1.51.46-2.58-5.36-16.29-6.41-20.59-1.16-4.77-4.99-24.22-2.68-27.41.52-.71,12.86-7.64,13.62-7.48,5.93,3.92,11.89,8.04,17.2,12.77,6.67,5.93,11.82,13.16,18.22,19.33.7.49,1.26.39,2.03.22,1.63-.35,10.36-4.49,12.5-5.55.95-.47,3.54-1.47,4-1.99,2-2.25-1.35-17.49-1.55-21.7-.42-9.09.74-18.26,2.03-27.23.45-1.07,14.2-5.45,16.61-5.26,6.27,7.65,13.18,14.7,18.45,23.16,1.9,3.05,7.48,15.26,9.46,16.06.92.38,18.66-3.21,19.49-3.76,2.25-1.5,1.22-9.35,1.5-11.99.65-6.17,1.76-12.5,3.21-18.52.76-3.16,3.79-14.41,5.15-16.59,1.06-1.7,14.46-3.26,16.62-2.59,4.14,1.27,14.76,27.78,16.47,33,1.36,4.16,1.09,11.19,6.14,11.85,2.33.3,15.38.34,17.14-.18,2.69-.8,5.3-14.08,6.51-17.48,3.43-9.64,8.83-18.26,13.63-27.21Z"/>
    <path class="st7" d="M391.35,243.87c208.43-9.74,359.4,197.59,285.71,393.35-75.42,200.39-339.32,253.12-485.45,94.99-167.94-181.74-46.63-476.82,199.73-488.34Z"/>
    <path class="st0" d="M386.85,314.3c191.48-12.13,314.27,198.46,202.52,355.94-97.34,137.17-305.48,123.32-384.25-24.95-75.41-141.94,21.11-320.82,181.74-330.99Z"/>
    <path class="st20" d="M396.75,251.14c1.48,4.91-3.14,4.04-4.14,5.98-1.93,3.75,4.6,26.36,5.76,31.74.46,2.15,4.74.86,5.13,1.25-.07,1.12.3,2.88-.33,3.79s-13.89,1.69-16.17,2.95c-1.32-4.49,1.63-4.45,2.62-5.99,1.16-1.81-2.71-19.88-3.4-23.59-.23-1.23.5-1.29-1.47-1.14l-5.92,30.43c-.48,1.97-2.88,2.13-4.62,2.19l-14.95-29.62,1.46,24.98c.36,1.71,4.89.12,5.28.49-.17.99.32,4.09-.04,4.46-.52.54-12.78,1.16-14.96,2.28-1.3-4.83,1.46-4.11,2.59-6.01,2.03-3.4.38-6.23.37-9.32,0-3.7.82-22.29-1.19-23.7-1.25-.87-4.6-.52-4.77-.69-.16-.16-.17-4.34,0-4.49.57-.54,13.61-1.25,15.63-1.37,1.17.72,8.87,21.52,11.19,25.13.47.74-.08,1.34,1.68.96l4.85-28.5c.56-.8,13.12-1.74,15.4-2.22Z"/>
    <path class="st10" d="M329.25,304.34c2.74,4.56-5.75,8.56-9.36,8.29-2.33-.17-3.34-1.33-5.12-2.44-2.34-1.46-9.57-8.44-10.8-8.76-1.6-.41-3.12,1.39-4.72,1.42-.35.46,3.9,9.61,4.89,10.47,2.89,2.51,5.19-4.13,6.17,3.42-5.6,2.66-11.33,5.85-17.05,7.82-2.38-4.86,1.85-4.74,2.09-7.26.46-4.76-11.29-23.32-12.7-29.34-2.34-1.48-6.02,3.7-5.96-3.38,9.28-3.36,27.15-17.59,34.9-5.69,3.97,6.09,1.32,11.5-1.52,17.22,5.66,3.54,12.04,10.43,19.17,8.22Z"/>
    <path class="st10" d="M468,298.37c.14.19-1.13,4.16-1.84,4.3-2.54.52-15.16-3.89-19.16-2.83-.81-6.92,4.95-3.34,6.08-4.93,1.7-2.39-.34-6.56-.09-9.29-2.69.63-11.37-2.37-12.81-1.03-.73.68-3.07,5.47-2.96,6.63.27,3.04,5.85,2.23,5.98,3.74-.62.79-.69,2.56-1.41,3.07-1.56,1.12-14.3-2.85-17.29-2.68-.15-5.28,1.69-3.73,4.04-5.32,1.04-.7,1.57-1.98,2.27-2.99,6.38-9.14,11.33-21.55,17.06-31.28.98-.6,11.02.57,11.55,1.32,1.7,11.41,1.31,24.22,3.52,35.44,1.29,6.54,4.03,4.51,5.05,5.84Z"/>
    <path class="st10" d="M274.44,337.23c-.19.28-4.57,2.99-5.54,3.85-2.05,1.83-6.97,7.38-9.06,8.19-1.02.4-2.41-2.34-2.48-2.74-.28-1.68,4.55-3.27,1.58-6.25-.66-.66-5.14-3.73-5.83-3.73-1.15,0-9.31,7.03-9.35,8.61,0,.38,2.74,6.84,3.07,7.05,1.68,1.06,5.05-1.7,6.29-2.89.21,0,2.48,3.16,2.48,3.37-.02.9-12.31,9.69-13.73,11.59-3.74-3.13-1.3-3.85-1.21-6.32.04-1-.6-2.51-.89-3.57-1.56-5.64-13.24-31.5-12.42-34.52.27-.99,6.65-7.2,7.43-6.99l31.51,21.02c1.88,1.48,5.2-.95,6.7,0,.6.38,1.83,2.78,1.44,3.33Z"/>
    <path class="st10" d="M627.76,445.2c-.14.19-4.31,1.66-4.49,1.51-.27-.2-1.82-5.13-2.37-6.27-1.09-2.26-5.66-9.88-5.91-11.34s3.3-2.03,4.03-1.93c.67.09,1.65,3.88,3.73,3.69.68-.06,5.85-3.8,6.17-4.39.76-1.4-4.24-11.38-5.05-11.86-.65-.38-8.55,1.07-8.8,1.44-.98,1.72,2.22,5.49,1.42,6.65-.15.22-4.02,1.1-4.44.74-.63-.55-4.39-13.64-6.77-15.33,3.57-3.69,5.9.48,10.07.4,10.37-.19,22.48-3.2,33.07-3.79,5.04-.28,7.26,5.61,8.25,9.74l-27.8,23.99c-3.15,4.12-.89,6.46-1.1,6.75Z"/>
    <path class="st10" d="M527.24,294.61c-.21.17-5.06-1.3-5.24-1.51-.62-.69,1.58-4.69,1.48-6.32-.29-4.55-9.89-8.16-12.18-3.23-3.7,7.93,17.4,16.95,9.54,29-6.15,9.44-22.24,4.83-29.21-1.47-5.63-5.09,1.72-7.46,2.71-13.39,8.64.31,4.47,2.11,4.35,7.03-.19,7.87,13.15,9.7,13.55,2.94.45-7.75-17.85-15.82-9.62-27.54,5.86-8.35,17.73-5.23,25.15-.64,8.65,5.34,4.61,5.69.35,12.64-.5.82-.78,2.41-.88,2.49Z"/>
    <path class="st10" d="M607.13,339c.94.07,10.63,12.59,12.33,14.34-3.42,5.22-4.83-.62-8.92.84-2.38.85-16.53,12.23-19.15,14.62-3.78,3.46-6.13,5.06-1.18,9.38,5.8,5.06,10.16-1.46,12.3-1.05.55.11,3.35,2.89,3.43,3.36.29,1.62-10.81,8.26-12.96,9.15l-19.97-22.74c3.07-4.55,4.95-.71,7.68-1.22,4.63-.88,19.44-16.61,24.62-19.74,1.93-1.55-1.48-3.89-1.48-4.51,0-.5,2.66-2.48,3.3-2.43Z"/>
    <path class="st10" d="M578.19,317.06c-.41.3-2.71-2.18-4.83-.79-3.13,2.04-15.4,17.36-17.91,21.12-4.57,6.82,1.43,6.02,1,8.44-.06.35-1.85,2.25-2.2,2.4-.97.42-13.21-9.84-15.43-10.9,1.12-5.13,3.34-2.01,6.05-2.25,2.35-.21,10.74-11.72,12.68-14.32,1.53-2.04,7.13-8.75,7.66-10.39.83-2.56-1.25-3.22-2.69-4.89,1.81-1.8,2.1-3.31,4.74-1.77,3.99,2.32,7.81,7.33,12.52,9.25,1.26.99.36.82-.04,1.49-.29.49-1.42,2.53-1.55,2.62Z"/>
    <path class="st10" d="M194.25,388.27c1.01-.4,2.56.32,2.25,1.5,2.91,1.98,11.01,9.53,14.26,7.9,1.23-.62,1.28-2.66,1.88-2.66.97,0,3.16,1.98,3.29,2.74.14.82-8.17,13.11-9.03,14.02-.5.53-.64,1.49-1.7,1.21-3.84-1.97-1.29-4.15-2.07-6.93-.83-2.91-21.68-14.42-25.11-17.72-2.42-1.39-3.19.47-4.39,2.21-.75.2-2.77-1.68-3.02-2.24-.54-1.19,8.29-12.71,9.08-15.05,5.16.67,2.3,5.2,3.7,7.54.49.82,9.18,6.26,10.87,7.49Z"/>
    <path class="st10" d="M195,387.52l-4.54-17.94c-3.72.19-4.02,4.22-7.39-.51l9.31-13.75c4.3,2.67,2.58,6.2,3.59,10.65,1.06,4.67,2.9,9.23,3.61,13.99,6.32-.51,14.41.97,20.5.03,2.1-.33,5.16-3.01,5.94-2.87,4.33.77.92,6.75-.68,8.87-2.45,3.23-5.16,3.21-8.96,3.37-5.82.24-12.38-.78-18.37-.32-1.21-.08-2.62-.19-3-1.5Z"/>
    <path class="st1" d="M665.25,500.66h14.25l-11.07,8.59,4.32,12.39c-1.05,1.03-9.88-7.33-11.62-7.24-1.39.07-8.25,6.67-10.5,7.26-.76-3.43,4-9.22,3.26-12.22-.62-2.53-9.02-5.99-10.39-8.77h13.12c2.35-3.62,3.09-8.53,4.13-12.74,2.5.64,3.81,12.74,4.49,12.74Z"/>
    <path class="st0" d="M143.62,500.66c1.51-.48,3.84-11.79,4.51-11.99,1.55-.47,1,.85,1.31,1.65,1.31,3.38,1.85,7.33,3.93,10.34h13.12l-11.07,8.59c.49,2.02,4.45,11.21,3.56,12.39l-10.76-7.43-10.6,7.44c.06-3.46,4.14-9.79,3.4-12.97-.15-.64-9.73-6.09-10.54-8.02h13.12Z"/>
    <path class="st23" d="M160.5,640.03l14.99-5.99c-.02,1.81,2.47,3.47.78,4.88l-22.1,8.66c-.45-.07-1.15-2.94-1.14-3.52.02-3.49,9.31-12.99,11.22-16.75-1.3-1.03-13.87,6-15.39,5.88-.82-.06-2.12-2.95-1.82-3.92.36-1.14,20.86-9.69,22.02-9.39.83.21,2.52,4.38,2.29,5.19-.45,1.56-11.58,14.39-10.86,14.98Z"/>
    <path class="st23" d="M650.04,610.23c4.31-.89,9.07.22,12.58,2.83,7.72,5.75,3.1,14.17.41,21.42l-23.18-8.29c2.36-5.25,3.49-14.58,10.19-15.96Z"/>
    <path class="st23" d="M237.76,736.7c.92,4.8-2.42,8.22-3.01,12.74-8.24-2.54-1-7.13-.73-11.68.11-1.88-3.33-5.78-4.56-4.33-.98,1.16-4.8,6.8-5.66,6.98s-3.03-1.96-3.17-2.7c-.41-2.12,13.57-15.85,15.25-18.99,3.14,2.87,10.39,7.15,10.88,11.67s-4.77,8.54-9,6.31Z"/>
    <path class="st23" d="M310.5,792.14c-9.53-.54.42-10.47-6.32-13.54-5.06-2.31-3.79,6.33-6.4,7.99-1.31.83-3.1-1.34-4.52-1.2l9.47-22.53c10.17,1.79,22.55,11.02,7.05,16.92,3.29,3.27.57,8.37.73,12.36Z"/>
    <path class="st6" d="M408,787.27c-.05-.52-1.18-1.52-.75-2.62l16.5-.75c1.35,7.15-6.65,3.79-11.26,4.49v6s10.51-.76,10.51-.76v4.5s-9.76,0-9.76,0v6.75h12v3.75c-3.12.1-6.28-.14-9.41-.03-2.21.07-7.84,2.36-7.84-1.09,0-6.29.62-14.19,0-20.23Z"/>
    <path class="st21" d="M205.5,699.99c.22,3.28,8.68,7.78,4.49,10.11-3.02,1.68-5.4-5.88-7.2-6.32-1.07-.26-4.83,2.78-5.22,3.69-.69,1.58,7.05,7.84,7.04,9.37,0,.54-1.99,1.95-2.49,2.6-1.73-1.53-11.08-11.89-10.84-13.01,2.73-1.55,16.37-15.16,17.7-15.39,1.43-.25,10.9,10.97,10.69,12.2-1.11,6.61-9.13-6.25-10.05-6.25-.41,0-2.59,3.36-4.12,3Z"/>
    <path class="st6" d="M460.45,784.63c-.48.36-11.46-3.2-10.09,2.33,1.01,4.12,9.08.42,13.19,4.76,8.67,9.17-8.07,17.21-15.75,10.84,1.99-7.19,1.75-3.61,5.16-2.52,2.79.89,7.6.62,7.62-3.03.02-5.21-9.73-1.45-13.24-5.58-7.25-8.54,7.89-15.99,14.65-10.17-.86.53-1.34,3.22-1.52,3.36Z"/>
    <path class="st21" d="M162.76,598.82c-.14.15-3.46,1.01-4.13.02-1.32-1.94-.86-10.47-3.57-10.37-8.33.31-1.27,10.37-2.05,11.09-.12.12-3.16.71-3.32.67-1.42-.35-2.55-7.8-2.69-9.66-.24-.24-6.53,1.26-6.73,1.54-.69.95,2.61,9.23,2.18,10.74-.36,1.26-2.9,1.66-3.63,1.15-.83-.58-2.92-13.55-3.82-15.66,4.23-.06,20.77-6.1,23.53-5.2.69.23.85.59,1.08,1.22.44,1.21,3.67,13.93,3.15,14.46Z"/>
    <path class="st21" d="M366.26,804.62c-.6-.57-1.06-1.67-1.6-2.37l3.21-3.36c.9,4.5,10.46,6.75,10.9,1.83.47-5.17-12.58-3.36-12.01-11.86s14.22-7.63,16.88-3.48c.85,1.33-1.83,3.63-2.27,3.64-.85,0-4.08-3.89-8.05-1.97-6.81,3.3,7.45,6.42,9.09,9.3,5.77,10.18-8.88,15.14-16.15,8.27Z"/>
    <path class="st21" d="M268.12,743.58c5.56,3.56,15.38,7.19,11.03,15.37-3.41,6.39-10.27,4.17-14.77.3-3.61,2.79-4.62,11.82-9.08,4.38l12.82-20.05Z"/>
    <path class="st21" d="M495.68,794.32c-.24.35-3.81,1.15-4.36.76-.98-.7-6.65-19.87-7.62-22.73,5.93-2.05,16.72-7.41,19.2,1.8s-8.7,9.64-9.35,11.73c-.6,1.95,3.29,6.77,2.13,8.45Z"/>
    <path class="st21" d="M537.75,747.94l4.26,25.15c-.17,1.03-4.22,2.71-5.36,2.6-1.89-.19-15.7-14.6-18.39-16.88,1.01-1.06,2.87-3.08,4.47-2.29,3.5,1.74,8.85,10.66,13.51,12.4.61-4.87-3.56-13.33-3.01-17.57.24-1.85,2.69-3.39,4.52-3.4Z"/>
    <path class="st24" d="M192.84,675.15c-.43-.25-2.01-4.45-2.74-5.17-2.72-.01-13.81,9.22-17.33,10.42-1.16.39-3.3-3.04-1.76-4.77,1.94-2.18,15.14-8.58,15.65-9.47.91-1.57-2.85-5.01-2.94-6.99-.02-.59,2.93-1.75,4.15-.43.63.68,8.12,12.72,8.33,13.49.56,2.01-2,3.71-3.37,2.91Z"/>
    <path class="st6" d="M569.94,729.86c-.18.25-5.26,3.15-5.18,3.45,1.73,4.2,10.72,11.76,11.71,15.35.37,1.34-1.42,3.51-2.4,3.74s-3.28-3.2-4.03-4.12c-2.89-3.54-6.08-7.59-8.31-11.57-4.25.74-5.22,6.57-8.96,1.11,2.65-1.55,12.82-11.25,14.73-11.54,1.41-.21,2.88,2.96,2.44,3.59Z"/>
    <path class="st6" d="M648.7,663.32c.56.79-.82,4.13-1.9,4.37-1.57.35-15.34-8.44-17.93-9.67-1.75,3.4-2.97,8.43-7.08,4.12,1.92-1.85,8.17-15.77,9.42-16.06.72-.17,3.17,1.21,3.21,1.8.08,1.03-3.6,4.87-2.6,6.4,1.24,1.89,16.29,8.2,16.88,9.04Z"/>
    <path class="st6" d="M630.64,692.59c.41.69.09,1.5-.26,2.14-1.82,3.32-6.99,7.61-9,11.23-4.95-4.88-13.17-8.91-17.9-13.58-2.17-2.15-.48-3.17,1.39-5.05l16.41,11.84c1.47-.26,4.74-7.13,6.47-7.86.39-.17,2.81,1.14,2.89,1.28Z"/>
    <path class="st13" d="M345.75,777.16c-1.78,2.85-5.11,23.13-6.01,23.97-.17.15-4.31-.61-4.47-.78-1.32-1.33,5.58-20.54,5.24-23.94l5.24.74Z"/>
    <path class="st22" d="M600.51,722.58c2.45-.2,3.64,4.18.99,5.51-4.67,2.34-5.25-5.16-.99-5.51Z"/>
    <path class="st3" d="M198,389.01c-.64.05-1.3.02-1.5.75-.76-.52-1.49-.94-2.25-1.5.3-.12.68-.75.75-.75.69.01,2.39.93,3,1.5Z"/>
    <path class="st7" d="M394.35,327.79c156.93-8.95,268.64,154.94,204.29,298.51-66.52,148.41-270.81,169.54-365.99,37.19-98.47-136.92-5.41-326.17,161.71-335.7Z"/>
    <path class="st8" d="M297.6,281.26c7.19-.59,10.36,9.23,5.44,13.75-.98.9-4.48,2.74-5.58,2.49-.92-.21-5.86-11.57-5.74-13,.17-2.04,4.16-3.1,5.89-3.24Z"/>
    <path class="st16" d="M451.5,264.63l1.5,15.73-9.75-1.5c2.49-3.99,4.09-9.41,6.57-13.26.47-.74-.08-1.34,1.68-.96Z"/>
    <path class="st12" d="M248.25,332.08c.98,1.38-6.75,7.28-7.49,6.73l-5.25-14.98,12.74,8.26Z"/>
    <path class="st18" d="M645.75,411.5c.28,1.25-.4,1.52-1.14,2.23-1.06,1.03-9.16,8.09-9.78,8.23-1.31.29-6.38-8.05-3.59-8.85,3.78-1.09,10.36-.44,14.51-1.61Z"/>
    <path class="st9" d="M645,623.54c1.99-7.71,7.17-11.85,14.63-6.74,3.87,2.65,3.39,11.26.68,11.93-1.81.45-12.4-5.13-15.32-5.19Z"/>
    <path class="st5" d="M237.38,724.72c1.96,2.49,7.19,4.78,3.43,7.91-1.51,1.25-1.91,1.34-3.76.68-5.91-2.08-3.07-5.53.34-8.59Z"/>
    <path class="st15" d="M311.06,775.48c-2,2.07-5.78-1.02-8.07-1.33.67-.96,1.93-5.63,2.33-5.92,1.73-1.24,9.61,3.24,5.73,7.25Z"/>
    <path class="st11" d="M269.26,749.43c6.91.07,8.71,10.3,1.3,8.85s-2.61-4.65-1.3-8.85Z"/>
    <path class="st5" d="M491.26,781.65c-.65-4.45-4.02-8.29,2.69-8.99,2.61-.27,4.1,1.18,4.5,3.72.61,3.83-4.37,4.86-7.19,5.28Z"/>
    <path class="st0" d="M428.77,572.38l-12.18,9.97c-1.01,1.59,2.69,9.4,2.76,11.88,6.51,2.14,18.87-1.53,20.08,7.29.6,4.34,1.22,15.44.02,19.36-1.82,5.94-15.28,3.34-18.71,6.03-.45.36-2.96,10.6-2.85,11.16.45,2.28,13.91,8.09,14.19,12.83.19,3.14-7.99,19.51-10.75,20.8-5.35,2.52-16.7-6.09-19.73-4.02-.44.3-6.88,7.53-6.98,8.05-.54,2.88,7.44,12.2,5.34,16.57-1.27,2.65-18.76,13.21-21.41,12.8-4.72-.72-8.54-12.4-13.46-11.75-1,.13-8.92,2.48-9.21,2.86-2.27,2.96-.59,16.8-3.87,18.8-2.74,1.67-22.22,2.24-24.57.63-2.47-1.69-3.63-15.11-4.21-18.65-3.28.68-8.2-2.38-10.9-2.23-2.91.16-9.24,13.73-12.74,14.21-3.19.44-20.43-8.5-21.69-11.27-2.13-4.66,5.26-15.43,4.71-18.24-.22-1.13-7.37-8.02-9.02-7.85-4.77.49-12.86,7.58-18.07,5.76-2.03-.71-12.23-17.93-12.18-20.49.08-4.03,11.9-10.07,13.62-13.9-1.41-2.13-2.32-9.94-4.17-10.83-3.91-1.23-16.6-.18-18.37-4.13-1.3-2.9-1.77-18.78-1.13-22.06,1.06-5.48,17.62-4.22,19.34-6.54.34-.47,2.56-10.75,2.45-11.32-.22-1.05-13.82-8.6-14.32-12.17-.44-3.17,8.66-20.28,11.47-21.51,3.66-1.59,14.01,4.16,18.19,5.23l7.85-9.13c-.97-4.7-7.8-13.96-5.61-18.39,1.02-2.07,17.69-12.06,20.27-12.04,4.65.04,10.6,13.88,14.79,13.44.74-.08,9.69-3.16,9.98-3.6,1.89-2.88-.71-15.38,4.16-18.33,2.52-1.52,18.76-1.78,22.04-1.17,5.91,1.1,3.76,15.12,6.32,18.42.35.45,10.41,3.09,10.98,3.01,3.12-.43,8.81-15.65,14.61-14.37,2.75.61,9.77,4.63,12.49,6.29,1.88,1.14,6.57,3.61,7.38,5.4,1.86,4.08-6.66,14.93-4.18,19.12.39.66,6.78,6.83,7.27,6.93,2.31.46,12.61-6.05,15.83-6.46,3.42-.44,6.74,5.16,8.46,7.71,2.19,3.23,8.44,12.64,5.75,15.92Z"/>
    <path class="st0" d="M462.85,379.18c.33.33,8.45,1.79,9.12,1.63,1.17-.27,6.77-11.28,10.09-11.91,2.78-.53,17.9,7.64,19.14,10.59,1.58,3.77-5.34,12.33-3.25,15.92.22.38,4.95,5.09,5.29,5.24,2.32,1.03,12.22-7.9,16.91-4.16,1.86,1.48,10.04,14.81,10.05,16.88.01,3.75-11.01,10.22-11.25,11.38-.13.61,1.89,8.33,2.21,8.8.83,1.19,13.24.47,15.47,2.67s2.66,19.52,1.04,22.04c-2.22,3.45-14.37,2.73-15.53,4.35-.21.29-1.62,6.54-1.63,7.06-.05,4.67,12.51,7.92,11.85,13.2-.29,2.31-7.46,15.79-9.32,16.96-5.18,3.25-12.32-4.04-17.02-2.95-.39.09-5.26,5.65-5.43,6.02-.6,1.33,5.54,10.12,4.6,13.52-.84,3.03-15.67,12.15-18.77,11.97-4.19-.25-8.48-10.39-10.98-10.16-.62.06-7.87,2.42-8.1,2.78-1.62,2.6.65,13.94-3.88,15.98-2.98,1.34-18.05,1.9-20.53.32-3.26-2.08-2.68-14.11-4.38-15.49-.43-.35-8.46-2.29-8.85-2.06-1.96,1.13-6.24,11.15-9.69,12.07-2.07.56-18.28-7.64-19.15-9.42-2.35-4.81,4.19-13.12,3.87-16.13-.05-.44-6.08-5.82-6.48-6-2.99-1.35-11.52,8.75-17.65,2.66-3.36-3.34-10.73-14.53-7.54-18.79,1.55-2.07,8.91-6.62,9.84-8.17.21-.34-1.79-7.27-2.05-7.75-1.58-2.96-13.99-1.08-16.42-4.57-1.72-2.47-2.25-19.13-.3-21.39,2.71-3.13,13.7-2.41,15.19-3.93.32-.33,2.24-8.46,2.04-8.87-1.34-2.82-11.98-6.24-12.06-10.82-.06-3.14,7.6-17.25,10.54-18.44,4.29-1.73,11.23,4.48,16.01,3.69.25-2.14,4.99-4.94,5.13-6.22.36-3.27-6.29-9.84-4.67-15.45.61-2.11,15.68-11.39,17.89-11.05,4.39.68,9.04,11.42,12.72,11.01.7-.08,6.95-1.99,7.17-2.29,1.91-2.57-.27-13.07,3.5-15.6,2.72-1.83,18.72-2.29,21.08-.77,3.4,2.19,2.88,14.41,4.17,15.69Z"/>
    <path class="st0" d="M523.63,540.99c.27.41,2.62.96,3.27.93,4.41-.2,5.28-9.16,10.86-7.96,1.52.33,11.79,5.98,12.36,7.16,2.35,4.79-4.53,10.62-.04,13.54,3.99,2.6,8.54-4.74,13.22-1.22,1.89,1.42,7.53,10.56,7.51,12.8-.04,4.97-10.39,6.49-6.85,12.61.81,1.41,9.35.24,11.34,3.05,1.52,2.15,1.83,10.8,1.41,13.49-1.08,6.89-9.98,4.29-11.59,6.4-4.81,6.28,8.37,6.9,7,13.7-.29,1.45-5.33,10.97-6.41,11.81-5.18,4.03-11.05-4.91-14.5.33-1.97,2.99,3.18,7.03,2,10.92-.72,2.38-11.16,9-13.56,9.01-5.67.02-5.54-8.92-11.81-6.02-2.42,1.12-.14,8.87-3.14,11.28-2.18,1.75-14.61,2.18-16.61.75-2.59-1.85-2.48-10.32-3.46-11.16-.3-.26-3.79-.84-4.36-.56-2.02,1.01-3.98,7.39-7.17,7.92-2.82.46-13.81-5.04-14.96-7.51-2.12-4.58,5.86-10.76-.4-13.89-1.55-.78-7.12,3.29-9.42,3.42-3.75.22-10.44-11.17-10.12-14.63.39-4.31,7.45-6.26,7.25-8.65-.63-7.31-9.55-2.07-12.48-7.02-1.06-1.79-1.37-12.55-.53-14.87,1.58-4.35,10.58-2.17,11.52-5.73,1.5-5.73-7.36-5.84-7.74-11.03-.21-2.9,6.06-13.86,9.33-14.37,3.5-.54,9.62,5.47,11.85.59,1.87-4.11-6.05-8.89-.65-14.1,2.62-2.53,10.81-7.35,14.18-5.39,2.02,1.17,4.86,6.12,5.69,6.71.23.17,4.32-1.06,4.7-1.34,1.42-1.02-.4-9.62,3.74-11.4,2.4-1.03,13.77-1.23,15.76.13,2.72,1.86,1.77,8.69,2.81,10.3Z"/>
    <path class="st0" d="M288.74,507.41l-8.13-3.35c8.94-26.47,24.72-51.11,46.67-68.53,9.27,7.01,2.98,7.46-2.17,12.66-16.36,16.55-29.69,36.77-36.37,59.22Z"/>
    <path class="st0" d="M493.5,686.48c-21.22,9.93-44.56,16.55-68.25,15.75v-8.25c22.2-.49,44.59-4.95,64.14-15.65l4.11,8.16Z"/>
    <path class="st0" d="M575.96,539.59c-.29.3-7.9,1.12-8.21.79-.52-7.55-1.66-15.12-3.36-22.49-.88-3.79-5.68-16.29-5.63-18.4s5.45-2.79,7.14-3.96c3.74,4.54,12.16,41.91,10.06,44.07Z"/>
    <path class="st19" d="M507.04,677.47c-.3-.21-2.16-5.67-3.72-6.34,3.37-2.33,7.56-6.56,10.93-8.51s5.29,3.15,7.01,5.49c-2.18,1.23-12.51,10.56-14.22,9.36Z"/>
    <path class="st14" d="M555.74,472.94l6.68,13.13-8.16,4.11c0-3.09-6.07-10.38-6.02-12.4.05-1.76,6.88-5.3,7.5-4.84Z"/>
    <path class="st14" d="M349.49,419.74c.09,1.67,3.75,6.11,3.67,7.13-.06.67-9.34,5.88-10.69,7.07l-4.95-7.45,11.98-6.75Z"/>
    <path class="st7" d="M339.74,518.65c.61,3.66,1.41,16.04,4.21,17.9.88.58,15.43,4.13,17.36,4.41,7.02.99,10.2-9.76,14.79-13.97l10.04,5.26c.83,1.41-6.15,15.05-5.03,18.08,5.74,4.52,10.58,12.3,17.39,14.58,4.49-1.12,9.8-5.15,13.98-6.24,2.62-.68,6.21,7.48,7.41,9.72-2.14,2.8-13.1,9.87-13.42,12.86,2.37,5.41,3.12,12.18,5.02,17.46.64,1.78,1.32,2.88,3.22,3.53,3.45,1.19,13.99.94,15.82,2.17,1.01.68.94,8.81.75,10.56-.12,1.13,0,.89-.96,1.32-3.98,1.77-15.51,1.11-17.42,5.06-.45.93-3.99,16.18-4.11,17.67-.08.94-.22,1.81.07,2.75.69,2.23,10.88,7.5,12.68,9.85,1.43,1.86-3,10.41-4.31,10.83-3.72,1.18-13.8-6.76-18.45-4.27-1.98,1.06-5.15,6.16-6.91,8.1s-6.61,5.35-6.98,7.31c-.58,3.06,6.56,14.79,5.81,15.85l-10.1,5.88c-3.29-1.74-8.32-11.35-11.28-11.82-3.25-.52-6.9,1.96-9.92,2.79-2.63.72-9.64,1.65-11.02,3.23-2.01,2.31-2.08,14.26-2.68,17.93-3.52.46-7.29,1.22-10.87.83-1.08-.12-.91.01-1.33-.95-1.63-3.77-1.34-13.29-3.46-16.58-.55-.85-2.75-1.31-3.8-1.63-3.2-.96-12.15-3.3-15.14-3.62-6.63-.72-10.73,12.74-13.86,13.68-1.18.36-8.83-3.81-10.04-4.83-.56-.47-.54-.46-.43-1.14.79-4.82,6.3-12.41,4.8-17.41-.52-1.75-12.48-10.77-14.12-13.64-4.77-2.2-15.74,7.5-19.14,4.93-2.15-1.62-3.35-6.72-5.52-8.68,2.74-3.16,13.27-9.52,13.51-13.48s-5.31-12.67-4.94-17.62c-1.99-6.07-15.33-2.8-18.65-5.17-1.62-1.15-1.48-9.25-.91-11.36.93-1.29,13.36-2.01,16.14-3.36,3.43-1.66,2.56-5.31,3.23-8.01s3.69-11.69,3.41-13.53c-.55-3.6-12.28-8.73-13.78-11.79-.59-1.22,3.82-10.37,5.89-10.33,4.21.08,12.2,6.41,17.06,4.79,2.57-.86,10.23-12.77,13.83-14.69,1.98-2.94-6.77-16.78-6.05-17.98,1.88-.95,8.23-5.9,9.82-5.77,2.08.17,9.34,12.6,12.9,13.15,2.32.36,16.51-5.69,20.29-6.04,2.37-2.46,1.86-17.57,3.28-18.45l11.89-.1Z"/>
    <path class="st7" d="M452.99,371.04c.67.7.61,13.82,3.78,15.33,3.89.01,14.53,4.57,17.42,4.03s7.92-9.16,9.63-11.81l8.21,4.13c-.6,3.87-5.73,11.85-4.16,15.28,3.14,1.75,11.1,11.61,13.53,12.02,3.69.62,13.19-5.75,14.61-4.92.44.26,4.75,7.52,4.48,7.89-2.38,1.24-10.94,7.81-11.27,10.17-.17,1.24,4.84,16.84,5.61,17.6,2.86,2.81,12.81,1.24,14.55,2.32.94.58,1.82,8.65-.41,9.5-5.01,1.9-12.91-.55-14.9,6.1-.48,1.6-3.43,13.88-3.35,14.63.34,3.31,11.65,9.28,11.84,10.48.25,1.57-3.72,5.71-3.59,7.9-.73.54-12.2-5.75-15.72-4.12-.8.37-11.62,12.06-11.87,12.9-1.38,4.56,4,9.74,4.27,12.72.11,1.27-7,5.51-7.68,5.4-2.27-.37-5.83-9.69-10.6-9.69-1.41,0-15.68,4.49-16.53,5.25-3.38,2.98-1.4,12.06-2.92,14.31-.44.66-8.53,2.48-9.3.19-1.39-4.14-.1-13.1-5.35-14.89-1.54-.53-14.32-3.43-15.34-3.33-3.38.32-8.43,8.94-10.21,11.98-1.71-1.24-8.14-3.02-7.92-5.3.36-3.78,5.37-9.73,3.88-14.23-.72-2.15-10.78-9.26-12.65-12.15-3.58-1.92-12.73,6.1-15.52,4.35-.72-.45-3.81-5.8-3.64-6.67.54-2.79,10.19-7.02,10.45-11.34.2-3.25-4.65-13.35-5.33-17.23-2.37-2.3-12.47-1.01-14.55-2.54-.68-.5-1.84-7.66-.45-8.72,3.08-2.35,13.49.06,15.42-5.58.51-1.5,3.5-15.22,3.35-16.1-.57-3.56-10.47-7.21-11.16-9.94-.18-.72,2.62-7.42,2.96-7.66,1.16-.84,12.24,5.12,15.15,4.34.9-.24,12.4-12.74,12.75-13.6,1.56-3.84-6.27-12.2-4.02-15.17.48-.63,6.03-4.02,6.45-3.98,1.35.12,8.37,13.29,12.54,11,3.09-2.48,14.08-3.1,16.12-5.29,2.4-2.57.1-14.75,4.31-15.55.86-.16,6.88-.24,7.13.02Z"/>
    <path class="st7" d="M514.42,538.21c.98.8.24,8.43,3.54,10.33.99.57,11.48,3.14,12.49,2.96,3.5-.62,6.8-8,7.67-8.08.36-.03,3.07,1.8,3.15,2.55.23,2.03-3.64,6.15-2.64,9.59.25.87,8.66,8.72,9.66,9.12,4.33,1.75,9.57-3.39,11.1-2.51.16.09,1.64,3.03,1.6,3.24-.1.47-6.31,4.69-7.12,6.45-.63,1.38,2.66,12.82,3.61,14,2.49,3.11,12,0,11.08,5.74-.32,1.98-9.16-.27-11.28,5.36-.71,1.9-2.57,10.24-2.27,11.94.53,3,7.6,5.06,7.39,7.38-.55,5.94-8.57-2.16-12.86.47-.46.28-6.75,7.17-7.27,7.91-3.71,5.24,2.72,9.21,1.38,11.49-.09.15-2.78,1.6-3.16,1.54-2.15-.33-3.56-6.25-7.72-6.44-.57-.03-10.04,2.59-10.93,2.98-5.33,2.34-1.73,11.47-5.45,11.83-4.32.42-2-7.62-4.89-10.14-1.1-.96-12.32-3.64-13.82-3.4-3.13.5-4.65,6.1-6.42,7.17-.56.34-3.57-.32-3.7-.46-1.18-1.33,3.72-7.8,1.82-11.94-.28-.6-9.44-8.51-10.08-8.69-3.48-.96-9.8,6.01-10.99,1.2-.78-3.17,6.11-4.99,6.43-8.69.16-1.84-2.91-13.07-4.21-13.86-1.66-1.01-9.94-1.36-10.01-1.87-.1-.69-.14-3.93,0-4.07.4-.38,8.53.33,10.43-2.69.31-.5,2.8-10.26,2.94-11.37.75-5.7-9.78-6.38-6.57-12.13,3.3-.27,8.14,3.6,10.98,2.43.62-.25,8.89-9.1,9.08-9.74,1.27-4.2-4.61-9.32-1.79-11.5,3.41-2.65,5.15,4.46,7.95,5.65,2.35,1,12.78-1.85,14.64-3.33,2.94-2.33,1.43-9.41,2.68-10.43.31-.25,3.29-.25,3.59,0Z"/>
    <path class="st0" d="M329.83,569.06c62.54-7.51,68.82,84.49,10.28,88.95-58.09,4.43-65.3-82.34-10.28-88.95Z"/>
    <path class="st14" d="M395.77,637.27c5.72,6.46-3.41,15.94-9.91,10.28-7.69-6.69,3.26-17.8,9.91-10.28Z"/>
    <path class="st14" d="M337.32,667.14c8.69-1.44,12,12.9,1.99,14.09-9.09,1.08-10.94-12.6-1.99-14.09Z"/>
    <path class="st19" d="M396.57,604.2c9.1-1.11,10.6,12.33,3.39,13.94-10.67,2.39-12.51-12.83-3.39-13.94Z"/>
    <path class="st19" d="M279.23,650.29c-6.42-6.89,4.71-16.58,10.69-9.56,6.23,7.32-4.81,15.86-10.69,9.56Z"/>
    <path class="st19" d="M309.51,566.37c-6.52,6.97-17.45-3.69-9.91-10.28,6.74-5.89,15.75,4.03,9.91,10.28Z"/>
    <path class="st14" d="M367.32,658.16c9.76-1.84,12.2,13.67,1.23,14.07-7.11.26-10.23-12.37-1.23-14.07Z"/>
    <path class="st19" d="M274.99,608.03c8.34-.42,10.37,12.79,2.08,13.99-10.48,1.51-11.67-13.5-2.08-13.99Z"/>
    <path class="st19" d="M363.54,552.51c9.43-2.07,11.87,12.07,3.41,13.95-9.42,2.09-11.57-12.15-3.41-13.95Z"/>
    <path class="st19" d="M334.24,545.09c8.53-.43,9.57,12.78,2.08,13.97-11.28,1.8-11.26-13.51-2.08-13.97Z"/>
    <path class="st19" d="M302.51,671.99c-6.51-6.56,4.43-16.32,10.26-9.88,6.47,7.14-3.87,16.32-10.26,9.88Z"/>
    <path class="st19" d="M282.49,577.31c9.57-.48,9.39,15.01-.87,14.08-8.32-.76-7.72-13.65.87-14.08Z"/>
    <path class="st19" d="M386.79,574.24c9.59-2.13,11.81,12.84,2.63,13.95-8.85,1.08-10.7-12.17-2.63-13.95Z"/>
    <path class="st0" d="M444.58,399.71c41.7-4.74,71.02,39.24,50.55,75.98-17.31,31.07-60.48,34.28-83.36,7.34-26.06-30.68-7.04-78.79,32.81-83.32Z"/>
    <path class="st0" d="M508.32,555.55c51.79-7,57.55,69.7,8.79,73.23-47.56,3.44-53.31-67.21-8.79-73.23Z"/>
    <path class="st7" d="M332.85,577.31c45.43-4.62,55.1,62.47,10.85,71.53-48.5,9.94-60.96-66.44-10.85-71.53Z"/>
    <path class="st7" d="M449.85,407.96c34.19-1.2,55.01,37.06,36.46,65.66s-61.32,24.48-74.45-6.41c-11.88-27.93,7.8-58.19,38-59.25Z"/>
    <path class="st7" d="M510.57,563.8c37.69-5.11,42.27,51.65,9.49,55.94-41.11,5.38-45.3-51.09-9.49-55.94Z"/>
    <path class="st0" d="M447.57,428.92c29.83-4.04,33.58,40.35,5.72,43.18s-33.12-39.47-5.72-43.18Z"/>
    <path class="st0" d="M511.3,575.77c19.49-3.28,26.91,24.02,9.47,31.19-23.03,9.47-32.46-27.33-9.47-31.19Z"/>
    <path class="st7" d="M450.61,437.14c16.87-.94,18.68,28.89-2.42,25.99-14.5-1.99-13.86-25.08,2.42-25.99Z"/>
    <path class="st17" d="M513.58,583.97c9.57-1.03,11.48,13.91,2.76,15.56-11.71,2.21-13.38-14.42-2.76-15.56Z"/>
  </g>
  <g>
    <g>
      <path class="st3" d="M919.74,546.23l-46.46-54.5v52.41h-16.4v-106.42h16.4v52.41l49.67-52.41h10.61l-50.32,49.51,57.07,56.91-20.58,2.09Z"/>
      <path class="st3" d="M958,544.14l47.74-108.99h2.41l47.74,108.99h-17.52l-12.06-28.94h-47.74l-11.9,28.94h-8.68ZM980.98,509.09h42.76l-21.22-52.08-21.54,52.08Z"/>
      <path class="st3" d="M1153.47,546.39l-37.29-53.05h-12.38v50.8h-15.75v-106.42h34.72c6.96,0,13.23,1.04,18.81,3.13,5.57,2.09,9.99,5.14,13.26,9.16,3.27,4.02,4.9,8.98,4.9,14.87,0,7.61-2.89,13.64-8.68,18.08-5.79,4.45-13.13,7.47-22.02,9.08l43.08,52.08-18.65,2.25ZM1103.8,488.52h10.29c7.82,0,13.8-1.13,17.92-3.38,4.12-2.25,6.99-5.12,8.6-8.6,1.61-3.48,2.41-7.1,2.41-10.85,0-.54-.13-1.74-.4-3.62-.27-1.87-.94-4.02-2.01-6.43-1.07-2.41-2.81-4.71-5.22-6.91-2.41-2.2-5.76-3.88-10.05-5.06-3.11,0-6.78.27-11.01.8-4.24.54-7.74,1.18-10.53,1.93v42.12Z"/>
      <path class="st3" d="M1205.39,544.14l5.95-106.42h14.95l37.13,81.18,35.53-81.18h16.4l5.95,106.42h-16.4l-4.34-91.47h-.64l-40.51,91.47h-2.25l-39.71-87.77h-.64l-4.34,87.77h-7.07Z"/>
      <path class="st3" d="M1352.8,544.14l47.74-108.99h2.41l47.74,108.99h-17.52l-12.06-28.94h-47.74l-11.9,28.94h-8.68ZM1375.79,509.09h42.76l-21.22-52.08-21.54,52.08Z"/>
      <path class="st3" d="M1510.5,546.07c-6.33,0-12.3-.75-17.92-2.25-5.63-1.5-9.99-2.84-13.1-4.02v-7.55c1.82.86,4.29,1.96,7.39,3.29,3.11,1.34,6.54,2.49,10.29,3.46,3.75.96,7.39,1.45,10.93,1.45,7.07,0,12.78-1.85,17.12-5.55,4.34-3.7,6.51-8.92,6.51-15.67,0-4.18-1.23-7.77-3.7-10.77-2.47-3-5.65-5.73-9.56-8.2-3.91-2.46-8.07-4.85-12.46-7.15-4.4-2.3-8.55-4.82-12.46-7.56-3.91-2.73-7.1-5.95-9.56-9.64-2.47-3.7-3.7-8.06-3.7-13.1,0-4.18,1.12-8.33,3.38-12.46,2.25-4.12,5.84-7.58,10.77-10.37,4.93-2.79,11.41-4.18,19.45-4.18,4.39,0,9.16.54,14.31,1.61,5.14,1.07,9.59,2.2,13.34,3.38l-1.61,10.93c-6.22-2.68-12.38-4.9-18.49-6.67s-12.33-2.65-18.65-2.65c-3.11,1.5-5.28,3.46-6.51,5.87-1.23,2.41-1.85,5.06-1.85,7.96,0,4.29,1.29,8.07,3.86,11.33,2.57,3.27,5.92,6.27,10.05,9,4.12,2.73,8.46,5.39,13.02,7.96,4.55,2.57,8.89,5.36,13.02,8.36,4.12,3,7.48,6.38,10.05,10.13,2.57,3.75,3.86,8.15,3.86,13.18,0,5.57-1.39,10.64-4.18,15.19-2.79,4.56-6.97,8.15-12.54,10.77-5.57,2.62-12.59,3.94-21.06,3.94Z"/>
      <path class="st3" d="M1588.3,544.14v-106.42h14.79v106.42h-14.79Z"/>
      <path class="st3" d="M1648.1,544.14v-106.42h15.75v97.74c2.79.75,5.6,1.42,8.44,2.01,2.84.59,5.28.88,7.31.88l29.1-4.98-1.93,10.77h-58.67Z"/>
      <path class="st3" d="M1729.6,544.14l47.74-108.99h2.41l47.74,108.99h-17.52l-12.06-28.94h-47.74l-11.9,28.94h-8.68ZM1752.58,509.09h42.76l-21.22-52.08-21.54,52.08Z"/>
    </g>
    <g>
      <path class="st3" d="M867.42,645.37v-51.08h30.94l-.77,5.17-14.35-2.39c-1.49,0-2.88.12-4.17.35-1.29.23-2.68.55-4.17.96v18.75h17.13v2.93h-17.13v22.53l23.92-2.39-.77,5.17h-30.63Z"/>
      <path class="st3" d="M956,646.22l-33.8-42.28h-.31v41.44h-3.4v-51.08h5.71l29.4,37.11h.31v-37.11h3.4v51.93h-1.31Z"/>
      <path class="st3" d="M988.87,645.37v-47.38c-.82-.21-1.65-.36-2.47-.46-.82-.1-1.75-.15-2.78-.15l-10.42,2.39-.46-5.48h39.74l-.39,5.48-10.49-2.39c-1.03,0-1.96.05-2.78.15-.82.1-1.65.26-2.47.46v47.38h-7.48Z"/>
      <path class="st3" d="M1027.92,645.37v-51.08h30.94l-.77,5.17-14.35-2.39c-1.49,0-2.88.12-4.17.35-1.29.23-2.67.55-4.17.96v18.75h17.13v2.93h-17.13v22.53l23.92-2.39-.77,5.17h-30.63Z"/>
      <path class="st3" d="M1110.4,646.45l-17.9-25.46h-5.94v24.38h-7.56v-51.08h16.67c3.34,0,6.35.5,9.03,1.5,2.67,1,4.8,2.47,6.37,4.4,1.57,1.93,2.35,4.31,2.35,7.14,0,3.65-1.39,6.55-4.17,8.68-2.78,2.13-6.3,3.59-10.57,4.36l20.68,25-8.95,1.08ZM1086.56,618.67h4.94c3.75,0,6.62-.54,8.6-1.62,1.98-1.08,3.36-2.46,4.13-4.13.77-1.67,1.16-3.41,1.16-5.21,0-.26-.06-.84-.19-1.74-.13-.9-.45-1.93-.96-3.09-.51-1.16-1.35-2.26-2.51-3.32-1.16-1.05-2.77-1.86-4.82-2.43-1.49,0-3.25.13-5.29.39-2.03.26-3.72.57-5.05.93v20.22Z"/>
      <path class="st3" d="M1135.94,645.37v-51.08h16.59c3.39,0,6.43.53,9.1,1.58,2.67,1.06,4.78,2.56,6.33,4.51,1.54,1.96,2.32,4.35,2.32,7.18,0,3.34-.85,6.13-2.55,8.37-1.7,2.24-4.06,3.91-7.1,5.01-3.04,1.11-6.56,1.66-10.57,1.66h-6.64v22.76h-7.48ZM1143.42,620.37h6.87c2.62,0,4.73-.46,6.33-1.39,1.59-.93,2.8-2.08,3.63-3.47.82-1.39,1.38-2.78,1.66-4.17.28-1.39.42-2.52.42-3.39,0-.31-.06-.93-.19-1.85-.13-.93-.46-1.98-1-3.16-.54-1.18-1.39-2.31-2.55-3.4-1.16-1.08-2.77-1.9-4.82-2.47-1.59,0-3.39.13-5.4.39-2.01.26-3.65.57-4.94.93v21.99Z"/>
      <path class="st3" d="M1217.19,646.45l-17.9-25.46h-5.94v24.38h-7.56v-51.08h16.67c3.34,0,6.35.5,9.03,1.5,2.67,1,4.8,2.47,6.37,4.4,1.57,1.93,2.35,4.31,2.35,7.14,0,3.65-1.39,6.55-4.17,8.68-2.78,2.13-6.3,3.59-10.57,4.36l20.68,25-8.95,1.08ZM1193.35,618.67h4.94c3.75,0,6.62-.54,8.6-1.62,1.98-1.08,3.36-2.46,4.13-4.13.77-1.67,1.16-3.41,1.16-5.21,0-.26-.06-.84-.19-1.74-.13-.9-.45-1.93-.96-3.09-.51-1.16-1.35-2.26-2.51-3.32-1.16-1.05-2.77-1.86-4.82-2.43-1.49,0-3.25.13-5.29.39-2.03.26-3.72.57-5.05.93v20.22Z"/>
      <path class="st3" d="M1242.73,645.37v-51.08h7.1v51.08h-7.1Z"/>
      <path class="st3" d="M1284.7,646.3c-3.04,0-5.9-.36-8.6-1.08-2.7-.72-4.8-1.36-6.29-1.93v-3.63c.87.41,2.06.94,3.55,1.58,1.49.64,3.14,1.2,4.94,1.66,1.8.46,3.55.69,5.25.69,3.4,0,6.13-.89,8.22-2.66,2.08-1.78,3.12-4.28,3.12-7.52,0-2.01-.59-3.73-1.77-5.17-1.18-1.44-2.71-2.75-4.59-3.93s-3.87-2.33-5.98-3.43c-2.11-1.11-4.1-2.31-5.98-3.63s-3.41-2.86-4.59-4.63c-1.18-1.77-1.77-3.87-1.77-6.29,0-2.01.54-4,1.62-5.98,1.08-1.98,2.8-3.64,5.17-4.98,2.37-1.34,5.48-2.01,9.34-2.01,2.11,0,4.4.26,6.87.77,2.47.51,4.6,1.05,6.4,1.62l-.77,5.25c-2.98-1.29-5.94-2.35-8.87-3.2-2.93-.85-5.92-1.27-8.95-1.27-1.49.72-2.53,1.66-3.12,2.82-.59,1.16-.89,2.43-.89,3.82,0,2.06.62,3.87,1.85,5.44,1.24,1.57,2.84,3.01,4.82,4.32,1.98,1.31,4.06,2.58,6.25,3.82,2.19,1.23,4.27,2.57,6.25,4.01,1.98,1.44,3.59,3.06,4.82,4.86,1.23,1.8,1.85,3.91,1.85,6.33,0,2.67-.67,5.11-2.01,7.29-1.34,2.19-3.34,3.91-6.02,5.17-2.68,1.26-6.04,1.89-10.11,1.89Z"/>
      <path class="st3" d="M1322.05,645.37v-51.08h30.94l-.77,5.17-14.35-2.39c-1.49,0-2.88.12-4.17.35-1.29.23-2.67.55-4.17.96v18.75h17.13v2.93h-17.13v22.53l23.92-2.39-.77,5.17h-30.63Z"/>
      <path class="st3" d="M1386.4,646.3c-3.04,0-5.9-.36-8.6-1.08-2.7-.72-4.8-1.36-6.29-1.93v-3.63c.87.41,2.06.94,3.55,1.58,1.49.64,3.14,1.2,4.94,1.66,1.8.46,3.55.69,5.25.69,3.4,0,6.13-.89,8.22-2.66,2.08-1.78,3.12-4.28,3.12-7.52,0-2.01-.59-3.73-1.77-5.17-1.18-1.44-2.71-2.75-4.59-3.93s-3.87-2.33-5.98-3.43c-2.11-1.11-4.1-2.31-5.98-3.63s-3.41-2.86-4.59-4.63c-1.18-1.77-1.77-3.87-1.77-6.29,0-2.01.54-4,1.62-5.98,1.08-1.98,2.8-3.64,5.17-4.98,2.37-1.34,5.48-2.01,9.34-2.01,2.11,0,4.4.26,6.87.77,2.47.51,4.6,1.05,6.4,1.62l-.77,5.25c-2.98-1.29-5.94-2.35-8.87-3.2-2.93-.85-5.92-1.27-8.95-1.27-1.49.72-2.53,1.66-3.12,2.82-.59,1.16-.89,2.43-.89,3.82,0,2.06.62,3.87,1.85,5.44,1.24,1.57,2.84,3.01,4.82,4.32,1.98,1.31,4.06,2.58,6.25,3.82,2.19,1.23,4.27,2.57,6.25,4.01,1.98,1.44,3.59,3.06,4.82,4.86,1.23,1.8,1.85,3.91,1.85,6.33,0,2.67-.67,5.11-2.01,7.29-1.34,2.19-3.34,3.91-6.02,5.17-2.68,1.26-6.04,1.89-10.11,1.89Z"/>
      <path class="st3" d="M1450.75,645.37v-51.08h16.59c3.39,0,6.43.53,9.1,1.58,2.67,1.06,4.78,2.56,6.33,4.51,1.54,1.96,2.32,4.35,2.32,7.18,0,3.34-.85,6.13-2.55,8.37-1.7,2.24-4.06,3.91-7.1,5.01-3.04,1.11-6.56,1.66-10.57,1.66h-6.64v22.76h-7.48ZM1458.24,620.37h6.87c2.62,0,4.73-.46,6.33-1.39,1.59-.93,2.8-2.08,3.63-3.47.82-1.39,1.38-2.78,1.66-4.17.28-1.39.42-2.52.42-3.39,0-.31-.06-.93-.19-1.85-.13-.93-.46-1.98-1-3.16-.54-1.18-1.39-2.31-2.55-3.4-1.16-1.08-2.77-1.9-4.82-2.47-1.59,0-3.39.13-5.4.39-2.01.26-3.65.57-4.94.93v21.99Z"/>
      <path class="st3" d="M1517.34,646.61l-22.92-52.31h8.41l16.97,41.82,15.28-41.82h3.86l-20.37,52.31h-1.23Z"/>
      <path class="st3" d="M1564.33,645.37v-47.38c-.82-.21-1.65-.36-2.47-.46-.82-.1-1.75-.15-2.78-.15l-10.42,2.39-.46-5.48h39.74l-.39,5.48-10.49-2.39c-1.03,0-1.96.05-2.78.15-.82.1-1.65.26-2.47.46v47.38h-7.48Z"/>
      <path class="st3" d="M1606.08,646.22c-1.18,0-2.19-.41-3.01-1.23-.82-.82-1.23-1.83-1.23-3.01s.41-2.2,1.23-3.05c.82-.85,1.83-1.27,3.01-1.27s2.2.42,3.05,1.27c.85.85,1.27,1.87,1.27,3.05s-.42,2.19-1.27,3.01c-.85.82-1.87,1.23-3.05,1.23Z"/>
      <path class="st3" d="M1657.39,645.37v-51.08h7.56v46.91c1.34.36,2.69.68,4.05.96,1.36.28,2.53.42,3.51.42l13.97-2.39-.93,5.17h-28.16Z"/>
      <path class="st3" d="M1712.63,645.37v-47.38c-.82-.21-1.65-.36-2.47-.46-.82-.1-1.75-.15-2.78-.15l-10.42,2.39-.46-5.48h39.74l-.39,5.48-10.49-2.39c-1.03,0-1.96.05-2.78.15-.82.1-1.65.26-2.47.46v47.38h-7.48Z"/>
      <path class="st3" d="M1751.68,645.37v-51.08h14.58c3.45,0,6.92.48,10.42,1.43,3.5.95,6.71,2.5,9.65,4.63,2.93,2.14,5.29,4.91,7.06,8.33,1.77,3.42,2.66,7.6,2.66,12.54,0,4.27-.77,7.94-2.31,11-1.54,3.06-3.64,5.56-6.29,7.49-2.65,1.93-5.67,3.36-9.07,4.28-3.4.93-6.95,1.39-10.65,1.39h-16.05ZM1766.18,642.75c4.17,0,7.88-.82,11.15-2.47,3.27-1.65,5.84-4.15,7.72-7.52,1.88-3.37,2.82-7.62,2.82-12.77,0-3.96-.73-7.51-2.2-10.65-1.47-3.14-3.47-5.76-6.02-7.87-2.55-2.11-5.44-3.58-8.68-4.4-1.8,0-3.85.15-6.13.46-2.29.31-4.16.69-5.59,1.16v43.36c.72.21,1.75.37,3.09.5,1.34.13,2.62.19,3.86.19Z"/>
      <path class="st3" d="M1816.72,646.22c-1.18,0-2.19-.41-3.01-1.23-.82-.82-1.23-1.83-1.23-3.01s.41-2.2,1.23-3.05c.82-.85,1.83-1.27,3.01-1.27s2.2.42,3.05,1.27c.85.85,1.27,1.87,1.27,3.05s-.42,2.19-1.27,3.01c-.85.82-1.87,1.23-3.05,1.23Z"/>
    </g>
    <line class="st4" x1="856.38" y1="563.29" x2="1830.47" y2="564.48"/>
  </g>
</svg>